<?xml version="1.0" encoding="UTF-8" standalone="no"?>
<!DOCTYPE svg PUBLIC "-//W3C//DTD SVG 1.1//EN"
 "http://www.w3.org/Graphics/SVG/1.1/DTD/svg11.dtd">
<!-- Generated by graphviz version 2.43.0 (0)
 -->
<!-- Title: DD Pages: 1 -->
<svg width="114pt" height="370pt"
 viewBox="0.00 0.00 114.25 369.60" xmlns="http://www.w3.org/2000/svg" xmlns:xlink="http://www.w3.org/1999/xlink">
<g id="graph0" class="graph" transform="scale(1 1) rotate(0) translate(4 365.6)">
<title>DD</title>
<polygon fill="white" stroke="transparent" points="-4,4 -4,-365.6 110.25,-365.6 110.25,4 -4,4"/>
<!-- root -->
<!-- 988952 -->
<g id="node3" class="node">
<title>988952</title>
<g id="a_node3"><a xlink:title="q3">
<text text-anchor="start" x="53.32" y="-304.5" font-family="Times,serif" font-size="20.00">q</text>
<text text-anchor="start" x="66.32" y="-304.5" font-family="Times,serif" baseline-shift="sub" font-size="12.00">3</text>
<g id="a_node3_0"><a xlink:href="javascript:;" xlink:title="1">
<polyline fill="none" stroke="black" points="63.32,-285.5 63.32,-296.5 49.32,-296.5 "/>
<text text-anchor="start" x="51.32" y="-289.1" font-family="Times,serif" font-size="8.00" fill="white"> 0 </text>
</a>
</g>
<g id="a_node3_1"><a xlink:href="javascript:;" xlink:title="1">
<polyline fill="none" stroke="black" points="77.32,-296.5 63.32,-296.5 63.32,-285.5 "/>
<text text-anchor="start" x="65.32" y="-289.1" font-family="Times,serif" font-size="8.00" fill="white"> 0 </text>
</a>
</g>
<path fill="none" stroke="black" d="M58.32,-285C58.32,-285 68.32,-285 68.32,-285 73.32,-285 78.32,-290 78.32,-295 78.32,-295 78.32,-312 78.32,-312 78.32,-317 73.32,-322 68.32,-322 68.32,-322 58.32,-322 58.32,-322 53.32,-322 48.32,-317 48.32,-312 48.32,-312 48.32,-295 48.32,-295 48.32,-290 53.32,-285 58.32,-285"/>
</a>
</g>
</g>
<!-- root&#45;&gt;988952 -->
<g id="edge1" class="edge">
<title>root&#45;&gt;988952</title>
<g id="a_edge1"><a xlink:title="1">
<path fill="none" stroke="#bf3f3f" stroke-width="3" d="M63.32,-357.86C63.32,-353.63 63.32,-336.04 63.32,-322.2"/>
</a>
</g>
</g>
<!-- t -->
<g id="node2" class="node">
<title>t</title>
<g id="a_node2"><a xlink:title="1">
<polygon fill="none" stroke="black" points="63.82,-30 34.82,-30 34.82,0 63.82,0 63.82,-30"/>
<text text-anchor="start" x="42.82" y="-10" font-family="Times,serif" font-size="20.00">1</text>
</a>
</g>
</g>
<!-- 988932 -->
<g id="node4" class="node">
<title>988932</title>
<g id="a_node4"><a xlink:title="q2">
<text text-anchor="start" x="77.32" y="-231.5" font-family="Times,serif" font-size="20.00">q</text>
<text text-anchor="start" x="90.32" y="-231.5" font-family="Times,serif" baseline-shift="sub" font-size="12.00">2</text>
<g id="a_node4_2"><a xlink:href="javascript:;" xlink:title="1">
<polyline fill="none" stroke="black" points="87.32,-212.5 87.32,-223.5 73.32,-223.5 "/>
<text text-anchor="start" x="75.32" y="-216.1" font-family="Times,serif" font-size="8.00" fill="white"> 0 </text>
</a>
</g>
<g id="a_node4_3"><a xlink:href="javascript:;" xlink:title="1">
<polyline fill="none" stroke="black" points="101.32,-223.5 87.32,-223.5 87.32,-212.5 "/>
<text text-anchor="start" x="89.32" y="-216.1" font-family="Times,serif" font-size="8.00" fill="white"> 0 </text>
</a>
</g>
<path fill="none" stroke="black" d="M82.32,-212C82.32,-212 92.32,-212 92.32,-212 97.32,-212 102.32,-217 102.32,-222 102.32,-222 102.32,-239 102.32,-239 102.32,-244 97.32,-249 92.32,-249 92.32,-249 82.32,-249 82.32,-249 77.32,-249 72.32,-244 72.32,-239 72.32,-239 72.32,-222 72.32,-222 72.32,-217 77.32,-212 82.32,-212"/>
</a>
</g>
</g>
<!-- 988952&#45;&gt;988932 -->
<g id="edge2" class="edge">
<title>988952:se&#45;&gt;988932</title>
<g id="a_edge2"><a xlink:title="1">
<path fill="none" stroke="#bf3f3f" stroke-width="3" d="M77.32,-285C86.54,-275.78 88.72,-260.95 88.78,-249.24"/>
</a>
</g>
</g>
<!-- 988912 -->
<g id="node5" class="node">
<title>988912</title>
<g id="a_node5"><a xlink:title="q2">
<text text-anchor="start" x="29.32" y="-231.5" font-family="Times,serif" font-size="20.00">q</text>
<text text-anchor="start" x="42.32" y="-231.5" font-family="Times,serif" baseline-shift="sub" font-size="12.00">2</text>
<g id="a_node5_4"><a xlink:href="javascript:;" xlink:title="1">
<polyline fill="none" stroke="black" points="39.32,-212.5 39.32,-223.5 25.32,-223.5 "/>
<text text-anchor="start" x="27.32" y="-216.1" font-family="Times,serif" font-size="8.00" fill="white"> 0 </text>
</a>
</g>
<g id="a_node5_5"><a xlink:href="javascript:;" xlink:title="1">
<polyline fill="none" stroke="black" points="53.32,-223.5 39.32,-223.5 39.32,-212.5 "/>
<text text-anchor="start" x="41.32" y="-216.1" font-family="Times,serif" font-size="8.00" fill="white"> 0 </text>
</a>
</g>
<path fill="none" stroke="black" d="M34.32,-212C34.32,-212 44.32,-212 44.32,-212 49.32,-212 54.32,-217 54.32,-222 54.32,-222 54.32,-239 54.32,-239 54.32,-244 49.32,-249 44.32,-249 44.32,-249 34.32,-249 34.32,-249 29.32,-249 24.32,-244 24.32,-239 24.32,-239 24.32,-222 24.32,-222 24.32,-217 29.32,-212 34.32,-212"/>
</a>
</g>
</g>
<!-- 988952&#45;&gt;988912 -->
<g id="edge3" class="edge">
<title>988952:sw&#45;&gt;988912</title>
<g id="a_edge3"><a xlink:title="1">
<path fill="none" stroke="#bf3f3f" stroke-width="3" d="M49.32,-285C40.1,-275.78 37.91,-260.95 37.85,-249.24"/>
</a>
</g>
</g>
<!-- 988852 -->
<g id="node6" class="node">
<title>988852</title>
<g id="a_node6"><a xlink:title="q1">
<text text-anchor="start" x="15.32" y="-158.5" font-family="Times,serif" font-size="20.00">q</text>
<text text-anchor="start" x="28.32" y="-158.5" font-family="Times,serif" baseline-shift="sub" font-size="12.00">1</text>
<g id="a_node6_6"><a xlink:href="javascript:;" xlink:title="1">
<polyline fill="none" stroke="black" points="25.32,-139.5 25.32,-150.5 11.32,-150.5 "/>
<text text-anchor="start" x="13.32" y="-143.1" font-family="Times,serif" font-size="8.00" fill="white"> 0 </text>
</a>
</g>
<g id="a_node6_7"><a xlink:href="javascript:;" xlink:title="0">
<polyline fill="none" stroke="black" points="39.32,-150.5 25.32,-150.5 25.32,-139.5 "/>
<text text-anchor="start" x="27.32" y="-143.1" font-family="Times,serif" font-size="8.00"> 0 </text>
</a>
</g>
<path fill="none" stroke="black" d="M20.32,-139C20.32,-139 30.32,-139 30.32,-139 35.32,-139 40.32,-144 40.32,-149 40.32,-149 40.32,-166 40.32,-166 40.32,-171 35.32,-176 30.32,-176 30.32,-176 20.32,-176 20.32,-176 15.32,-176 10.32,-171 10.32,-166 10.32,-166 10.32,-149 10.32,-149 10.32,-144 15.32,-139 20.32,-139"/>
</a>
</g>
</g>
<!-- 988932&#45;&gt;988852 -->
<g id="edge4" class="edge">
<title>988932:se&#45;&gt;988852</title>
<g id="a_edge4"><a xlink:title="1">
<path fill="none" stroke="#bf3f3f" stroke-width="3" d="M101.32,-212C121.19,-192.12 72.23,-192.28 49.32,-176 46.46,-173.97 43.42,-171.78 40.51,-169.67"/>
</a>
</g>
</g>
<!-- 988892 -->
<g id="node7" class="node">
<title>988892</title>
<g id="a_node7"><a xlink:title="q1">
<text text-anchor="start" x="63.32" y="-158.5" font-family="Times,serif" font-size="20.00">q</text>
<text text-anchor="start" x="76.32" y="-158.5" font-family="Times,serif" baseline-shift="sub" font-size="12.00">1</text>
<g id="a_node7_8"><a xlink:href="javascript:;" xlink:title="0">
<polyline fill="none" stroke="black" points="73.32,-139.5 73.32,-150.5 59.32,-150.5 "/>
<text text-anchor="start" x="61.32" y="-143.1" font-family="Times,serif" font-size="8.00"> 0 </text>
</a>
</g>
<g id="a_node7_9"><a xlink:href="javascript:;" xlink:title="1">
<polyline fill="none" stroke="black" points="87.32,-150.5 73.32,-150.5 73.32,-139.5 "/>
<text text-anchor="start" x="75.32" y="-143.1" font-family="Times,serif" font-size="8.00" fill="white"> 0 </text>
</a>
</g>
<path fill="none" stroke="black" d="M68.32,-139C68.32,-139 78.32,-139 78.32,-139 83.32,-139 88.32,-144 88.32,-149 88.32,-149 88.32,-166 88.32,-166 88.32,-171 83.32,-176 78.32,-176 78.32,-176 68.32,-176 68.32,-176 63.32,-176 58.32,-171 58.32,-166 58.32,-166 58.32,-149 58.32,-149 58.32,-144 63.32,-139 68.32,-139"/>
</a>
</g>
</g>
<!-- 988932&#45;&gt;988892 -->
<g id="edge5" class="edge">
<title>988932:sw&#45;&gt;988892</title>
<g id="a_edge5"><a xlink:title="1">
<path fill="none" stroke="#bf3f3f" stroke-width="3" d="M73.32,-212C64.19,-202.87 64.97,-187.88 67.6,-176.09"/>
</a>
</g>
</g>
<!-- 988912&#45;&gt;988852 -->
<g id="edge7" class="edge">
<title>988912:sw&#45;&gt;988852</title>
<g id="a_edge7"><a xlink:title="1">
<path fill="none" stroke="#bf3f3f" stroke-width="3" d="M25.32,-212C16.19,-202.87 16.97,-187.88 19.6,-176.09"/>
</a>
</g>
</g>
<!-- 988912&#45;&gt;988892 -->
<g id="edge6" class="edge">
<title>988912:se&#45;&gt;988892</title>
<g id="a_edge6"><a xlink:title="1">
<path fill="none" stroke="#bf3f3f" stroke-width="3" d="M53.32,-212C62.92,-202.39 67.97,-187.75 70.6,-176.21"/>
</a>
</g>
</g>
<!-- 988832 -->
<g id="node8" class="node">
<title>988832</title>
<g id="a_node8"><a xlink:title="q0">
<text text-anchor="start" x="8.32" y="-85.5" font-family="Times,serif" font-size="20.00">q</text>
<text text-anchor="start" x="21.32" y="-85.5" font-family="Times,serif" baseline-shift="sub" font-size="12.00">0</text>
<g id="a_node8_10"><a xlink:href="javascript:;" xlink:title="1">
<polyline fill="none" stroke="black" points="18.32,-66.5 18.32,-77.5 4.32,-77.5 "/>
<text text-anchor="start" x="6.32" y="-70.1" font-family="Times,serif" font-size="8.00" fill="white"> 0 </text>
</a>
</g>
<g id="a_node8_11"><a xlink:href="javascript:;" xlink:title="0">
<polyline fill="none" stroke="black" points="32.32,-77.5 18.32,-77.5 18.32,-66.5 "/>
<text text-anchor="start" x="20.32" y="-70.1" font-family="Times,serif" font-size="8.00"> 0 </text>
</a>
</g>
<path fill="none" stroke="black" d="M13.32,-66C13.32,-66 23.32,-66 23.32,-66 28.32,-66 33.32,-71 33.32,-76 33.32,-76 33.32,-93 33.32,-93 33.32,-98 28.32,-103 23.32,-103 23.32,-103 13.32,-103 13.32,-103 8.32,-103 3.32,-98 3.32,-93 3.32,-93 3.32,-76 3.32,-76 3.32,-71 8.32,-66 13.32,-66"/>
</a>
</g>
</g>
<!-- 988852&#45;&gt;988832 -->
<g id="edge8" class="edge">
<title>988852:sw&#45;&gt;988832</title>
<g id="a_edge8"><a xlink:title="1">
<path fill="none" stroke="#bf3f3f" stroke-width="3" d="M11.32,-139C2.11,-129.79 4.96,-114.81 9.5,-103.04"/>
</a>
</g>
</g>
<!-- 988872 -->
<g id="node9" class="node">
<title>988872</title>
<g id="a_node9"><a xlink:title="q0">
<text text-anchor="start" x="70.32" y="-85.5" font-family="Times,serif" font-size="20.00">q</text>
<text text-anchor="start" x="83.32" y="-85.5" font-family="Times,serif" baseline-shift="sub" font-size="12.00">0</text>
<g id="a_node9_12"><a xlink:href="javascript:;" xlink:title="0">
<polyline fill="none" stroke="black" points="80.32,-66.5 80.32,-77.5 66.32,-77.5 "/>
<text text-anchor="start" x="68.32" y="-70.1" font-family="Times,serif" font-size="8.00"> 0 </text>
</a>
</g>
<g id="a_node9_13"><a xlink:href="javascript:;" xlink:title="1">
<polyline fill="none" stroke="black" points="94.32,-77.5 80.32,-77.5 80.32,-66.5 "/>
<text text-anchor="start" x="82.32" y="-70.1" font-family="Times,serif" font-size="8.00" fill="white"> 0 </text>
</a>
</g>
<path fill="none" stroke="black" d="M75.32,-66C75.32,-66 85.32,-66 85.32,-66 90.32,-66 95.32,-71 95.32,-76 95.32,-76 95.32,-93 95.32,-93 95.32,-98 90.32,-103 85.32,-103 85.32,-103 75.32,-103 75.32,-103 70.32,-103 65.32,-98 65.32,-93 65.32,-93 65.32,-76 65.32,-76 65.32,-71 70.32,-66 75.32,-66"/>
</a>
</g>
</g>
<!-- 988892&#45;&gt;988872 -->
<g id="edge9" class="edge">
<title>988892:se&#45;&gt;988872</title>
<g id="a_edge9"><a xlink:title="1">
<path fill="none" stroke="#bf3f3f" stroke-width="3" d="M87.32,-139C96.52,-129.79 93.67,-114.81 89.14,-103.04"/>
</a>
</g>
</g>
<!-- 988832&#45;&gt;t -->
<g id="edge11" class="edge">
<title>988832:sw&#45;&gt;t</title>
<g id="a_edge11"><a xlink:title="1">
<path fill="none" stroke="#bf3f3f" stroke-width="3" d="M4.32,-66C-10.22,-51.47 16.5,-33.28 34.62,-23.34"/>
</a>
</g>
</g>
<!-- 988872&#45;&gt;t -->
<g id="edge10" class="edge">
<title>988872:se&#45;&gt;t</title>
<g id="a_edge10"><a xlink:title="1">
<path fill="none" stroke="#bf3f3f" stroke-width="3" d="M94.32,-66C108.85,-51.47 82.13,-33.28 64.01,-23.34"/>
</a>
</g>
</g>
</g>
</svg>
